<?xml version="1.0" encoding="iso-8859-1"?>
<!-- Generator: Adobe Illustrator 19.0.0, SVG Export Plug-In . SVG Version: 6.00 Build 0)  -->
<svg version="1.1" id="Capa_1" xmlns="http://www.w3.org/2000/svg" xmlns:xlink="http://www.w3.org/1999/xlink" x="0px" y="0px"
	 viewBox="0 0 512 512" style="enable-background:new 0 0 512 512;transform: rotate(90deg)" xml:space="preserve">
<g>
	<g>
		<path d="M512,278.5v-105c0-33.084-26.916-60-60-60H327.033l-30.25-90h-81.566l-30.25,90H60c-33.084,0-60,26.916-60,60v105h180.75
			v105h-20.083c-29.583,0-55.385,20.058-62.745,48.776L96.967,436l0.955,3.724c7.36,28.718,33.162,48.776,62.745,48.776h175.667
			c29.584,0,55.386-20.058,62.745-48.776l0.954-3.724l-0.954-3.724c-7.359-28.719-33.161-48.776-62.745-48.776h-5.083v-105H512z
			 M451.75,143.5H452c16.542,0,30,13.458,30,30v75h-30.25V143.5z M391.5,143.5h30.25v105H391.5V143.5z M301.25,143.5v105H271v-105
			H301.25z M236.783,53.5h38.434l20.167,60h-78.768L236.783,53.5z M210.75,143.5H241v105h-30.25V143.5z M210.75,278.5h90.5v30h-90.5
			V278.5z M210.75,338.5h90.5v45h-90.5V338.5z M60.25,248.5H30v-75c0-16.542,13.458-30,30-30h0.25V248.5z M120.5,248.5H90.25v-105
			h30.25V248.5z M150.5,248.5v-105h30.25v105H150.5z M336.334,413.5c14.565,0,27.427,9.078,32.506,22.5
			c-5.079,13.422-17.94,22.5-32.507,22.5H160.667c-14.565,0-27.427-9.077-32.506-22.5c5.079-13.423,17.941-22.5,32.506-22.5H336.334
			z M331.25,248.5v-105h30.25v105H331.25z"/>
	</g>
</g>
<g>
</g>
<g>
</g>
<g>
</g>
<g>
</g>
<g>
</g>
<g>
</g>
<g>
</g>
<g>
</g>
<g>
</g>
<g>
</g>
<g>
</g>
<g>
</g>
<g>
</g>
<g>
</g>
<g>
</g>
</svg>
